<svg width="512" height="512" viewBox="0 0 512 512" fill="none" xmlns="http://www.w3.org/2000/svg">
<g clip-path="url(#clip0_3_2)">
<path d="M267 212.25H92.0684C93.8457 161.596 120.232 117.162 159.676 90.6388C168.768 84.5548 180.73 87.6993 186.951 96.6544L267 212.25ZM354.5 190.375C354.5 166.244 374.119 146.625 398.25 146.625H420.125C432.225 146.625 442 156.4 442 168.5C442 180.6 432.225 190.375 420.125 190.375H398.25V234.125C398.25 251.352 394.285 268.442 386.629 284.369C378.973 300.297 367.625 314.789 353.406 326.957C339.187 339.125 322.303 348.832 303.709 355.395C285.115 361.957 265.223 365.375 245.125 365.375C225.027 365.375 205.135 361.957 186.541 355.395C167.947 348.832 151.062 339.125 136.844 326.957C122.625 314.789 111.346 300.297 103.621 284.369C95.8965 268.442 92 251.352 92 234.125H245.125H354.5V190.375ZM146.688 431C128.572 431 113.875 416.303 113.875 398.188C113.875 380.072 128.572 365.375 146.688 365.375C164.803 365.375 179.5 380.072 179.5 398.188C179.5 416.303 164.803 431 146.688 431ZM376.375 398.188C376.375 416.303 361.678 431 343.562 431C325.447 431 310.75 416.303 310.75 398.188C310.75 380.072 325.447 365.375 343.562 365.375C361.678 365.375 376.375 380.072 376.375 398.188Z" fill="white"/>
</g>
<defs>
<clipPath id="clip0_3_2">
<rect width="350" height="350" fill="white" transform="translate(92 81)"/>
</clipPath>
</defs>
</svg>
