<svg width="512" height="512" viewBox="0 0 512 512" fill="none" xmlns="http://www.w3.org/2000/svg">
<rect width="512" height="512" fill="#1E2223"/>
<circle cx="255.5" cy="255.5" r="152.5" fill="#43A3EF" stroke="#89CBFF" stroke-width="12"/>
<g clip-path="url(#clip0_1_2)">
<path fill-rule="evenodd" clip-rule="evenodd" d="M242.464 215.199V203.666H215.553V175.495H203.29V203.666H176.312V215.199H203.29V245.756H215.553V215.199H242.464ZM215.553 215.199V203.666H203.29V215.199H215.553Z" fill="white"/>
<path d="M215.553 215.199V203.666H203.29V215.199H215.553Z" fill="white"/>
<path fill-rule="evenodd" clip-rule="evenodd" d="M180.385 323.807L188.273 331.96L210.246 309.564L232.219 331.96L240.107 323.807L218.203 301.454L239.908 279.331L232.02 271.111L210.246 293.333L188.472 271.111L180.584 279.331L202.289 301.454L180.385 323.807ZM202.289 301.454L210.246 309.564L218.203 301.454L210.246 293.333L202.289 301.454Z" fill="white"/>
<path d="M202.289 301.454L210.246 309.564L218.203 301.454L210.246 293.333L202.289 301.454Z" fill="white"/>
<path d="M316.92 205.216V215.291H284.573V205.216H316.92Z" fill="white"/>
<path d="M333.813 294.597V306.793H267.661V294.597H333.813ZM293.578 273.784C293.578 271.663 294.219 269.895 295.5 268.481C296.782 267.067 298.66 266.36 301.135 266.36C303.609 266.36 305.487 267.067 306.769 268.481C308.094 269.895 308.757 271.663 308.757 273.784C308.757 275.817 308.094 277.54 306.769 278.954C305.487 280.324 303.609 281.009 301.135 281.009C298.66 281.009 296.782 280.324 295.5 278.954C294.219 277.54 293.578 275.817 293.578 273.784ZM293.578 327.872C293.578 325.795 294.219 324.049 295.5 322.635C296.782 321.177 298.66 320.448 301.135 320.448C303.609 320.448 305.487 321.177 306.769 322.635C308.094 324.049 308.757 325.795 308.757 327.872C308.757 329.905 308.094 331.628 306.769 333.042C305.487 334.456 303.609 335.163 301.135 335.163C298.66 335.163 296.782 334.456 295.5 333.042C294.219 331.628 293.578 329.905 293.578 327.872Z" fill="white"/>
</g>
<defs>
<clipPath id="clip0_1_2">
<rect width="181" height="181" fill="white" transform="translate(165 165)"/>
</clipPath>
</defs>
</svg>
