<svg width="512" height="512" viewBox="0 0 512 512" fill="none" xmlns="http://www.w3.org/2000/svg">
<path d="M434.096 93.9463C433.954 93.6705 433.718 93.4544 433.431 93.3367C400.235 78.1061 365.204 67.2455 329.214 61.0266C328.887 60.9659 328.55 61.0097 328.249 61.152C327.948 61.2942 327.7 61.5276 327.54 61.819C322.77 70.4768 318.44 79.3698 314.566 88.464C275.771 82.575 236.309 82.575 197.514 88.464C193.615 79.3467 189.215 70.4515 184.335 61.819C184.168 61.534 183.919 61.3059 183.62 61.1646C183.321 61.0233 182.987 60.9752 182.66 61.0266C146.666 67.2324 111.633 78.0939 78.4415 93.3376C78.1574 93.4581 77.9176 93.6637 77.7554 93.9262C11.3789 193.051 -6.80417 289.738 2.11581 385.228C2.1409 385.462 2.2128 385.689 2.32723 385.895C2.44167 386.1 2.5963 386.281 2.78193 386.426C41.4324 415.043 84.6633 436.887 130.63 451.026C130.954 451.123 131.299 451.118 131.621 451.013C131.942 450.908 132.223 450.707 132.426 450.437C142.299 437.004 151.047 422.779 158.581 407.908C158.685 407.704 158.744 407.48 158.755 407.252C158.765 407.023 158.728 406.795 158.644 406.582C158.56 406.369 158.432 406.176 158.268 406.016C158.104 405.856 157.909 405.733 157.694 405.654C143.899 400.376 130.544 394.013 117.754 386.626C117.522 386.489 117.327 386.298 117.186 386.068C117.045 385.838 116.963 385.577 116.948 385.308C116.932 385.039 116.982 384.77 117.095 384.525C117.207 384.28 117.379 384.067 117.593 383.904C120.277 381.893 122.962 379.802 125.525 377.689C125.752 377.502 126.028 377.382 126.32 377.342C126.613 377.303 126.91 377.346 127.179 377.466C210.971 415.707 301.686 415.707 384.486 377.466C384.756 377.338 385.057 377.289 385.353 377.325C385.65 377.361 385.93 377.48 386.162 377.669C388.725 379.782 391.41 381.893 394.113 383.904C394.329 384.065 394.502 384.277 394.616 384.521C394.73 384.765 394.783 385.033 394.769 385.302C394.755 385.572 394.675 385.833 394.536 386.064C394.397 386.295 394.203 386.488 393.972 386.626C381.211 394.076 367.844 400.434 354.013 405.634C353.799 405.716 353.604 405.842 353.441 406.005C353.278 406.167 353.152 406.362 353.069 406.576C352.987 406.791 352.951 407.02 352.964 407.25C352.977 407.479 353.037 407.704 353.143 407.908C360.803 422.697 369.538 436.903 379.277 450.414C379.475 450.691 379.755 450.899 380.077 451.008C380.4 451.117 380.748 451.123 381.074 451.023C427.123 436.933 470.429 415.087 509.128 386.426C509.317 386.288 509.474 386.112 509.588 385.909C509.703 385.706 509.774 385.481 509.794 385.248C520.473 274.852 491.916 178.957 434.096 93.9463ZM171.095 327.085C145.867 327.085 125.081 303.934 125.081 275.502C125.081 247.071 145.464 223.918 171.095 223.918C196.926 223.918 217.511 247.272 217.108 275.501C217.108 303.934 196.724 327.085 171.095 327.085ZM341.222 327.085C315.996 327.085 295.209 303.934 295.209 275.502C295.209 247.071 315.592 223.918 341.222 223.918C367.055 223.918 387.639 247.272 387.236 275.501C387.236 303.934 367.055 327.085 341.222 327.085Z" fill="black"/>
</svg>
