<svg width="512" height="512" viewBox="0 0 512 512" fill="none" xmlns="http://www.w3.org/2000/svg">
<path d="M171.252 407.961C171.252 410.026 168.877 411.677 165.884 411.677C162.477 411.987 160.103 410.335 160.103 407.961C160.103 405.897 162.477 404.245 165.471 404.245C168.568 403.935 171.252 405.587 171.252 407.961ZM139.148 403.316C138.426 405.381 140.49 407.755 143.587 408.374C146.271 409.406 149.368 408.374 149.987 406.31C150.606 404.245 148.645 401.871 145.548 400.942C142.865 400.219 139.871 401.252 139.148 403.316ZM184.774 401.561C181.781 402.284 179.716 404.245 180.026 406.619C180.335 408.684 183.019 410.026 186.116 409.303C189.11 408.581 191.174 406.619 190.865 404.555C190.555 402.594 187.768 401.252 184.774 401.561ZM252.697 6C109.523 6 0 114.697 0 257.871C0 372.348 72.0516 470.31 174.968 504.787C188.181 507.161 192.826 499.006 192.826 492.297C192.826 485.897 192.516 450.594 192.516 428.916C192.516 428.916 120.258 444.4 105.084 398.155C105.084 398.155 93.3161 368.116 76.3871 360.374C76.3871 360.374 52.7484 344.168 78.0387 344.477C78.0387 344.477 103.742 346.542 117.884 371.11C140.49 410.955 178.374 399.497 193.135 392.684C195.51 376.168 202.219 364.71 209.652 357.897C151.948 351.497 93.729 343.135 93.729 243.832C93.729 215.445 101.574 201.2 118.09 183.032C115.406 176.323 106.632 148.658 120.774 112.942C142.348 106.232 192 140.813 192 140.813C212.645 135.032 234.839 132.039 256.826 132.039C278.813 132.039 301.006 135.032 321.652 140.813C321.652 140.813 371.303 106.129 392.877 112.942C407.019 148.761 398.245 176.323 395.561 183.032C412.077 201.303 422.194 215.548 422.194 243.832C422.194 343.445 361.394 351.394 303.69 357.897C313.187 366.052 321.239 381.535 321.239 405.794C321.239 440.581 320.929 483.626 320.929 492.09C320.929 498.8 325.677 506.955 338.787 504.581C442.013 470.31 512 372.348 512 257.871C512 114.697 395.871 6 252.697 6ZM100.335 362.026C98.9935 363.058 99.3032 365.432 101.058 367.394C102.71 369.045 105.084 369.768 106.426 368.426C107.768 367.394 107.458 365.019 105.703 363.058C104.052 361.406 101.677 360.684 100.335 362.026ZM89.1871 353.664C88.4645 355.006 89.4968 356.658 91.5613 357.69C93.2129 358.723 95.2774 358.413 96 356.968C96.7226 355.626 95.6903 353.974 93.6258 352.942C91.5613 352.323 89.9097 352.632 89.1871 353.664ZM122.632 390.413C120.981 391.755 121.6 394.852 123.974 396.813C126.348 399.187 129.342 399.497 130.684 397.845C132.026 396.503 131.406 393.406 129.342 391.445C127.071 389.071 123.974 388.761 122.632 390.413ZM110.865 375.239C109.213 376.271 109.213 378.955 110.865 381.329C112.516 383.703 115.303 384.735 116.645 383.703C118.297 382.361 118.297 379.677 116.645 377.303C115.2 374.929 112.516 373.897 110.865 375.239Z" fill="black"/>
</svg>
