<svg width="512" height="512" viewBox="0 0 512 512" fill="none" xmlns="http://www.w3.org/2000/svg">
<g clip-path="url(#clip0_1_12)">
<path d="M256.057 124.702C183.412 124.702 124.816 183.298 124.816 255.943C124.816 328.588 183.412 387.184 256.057 387.184C328.702 387.184 387.298 328.588 387.298 255.943C387.298 183.298 328.702 124.702 256.057 124.702ZM256.057 341.267C209.112 341.267 170.733 303.002 170.733 255.943C170.733 208.883 208.998 170.619 256.057 170.619C303.117 170.619 341.381 208.883 341.381 255.943C341.381 303.002 303.002 341.267 256.057 341.267ZM423.278 119.333C423.278 136.352 409.571 149.945 392.667 149.945C375.648 149.945 362.055 136.238 362.055 119.333C362.055 102.429 375.762 88.7219 392.667 88.7219C409.571 88.7219 423.278 102.429 423.278 119.333ZM510.201 150.402C508.259 109.396 498.893 73.0735 468.853 43.1473C438.927 13.2212 402.604 3.85499 361.598 1.799C319.336 -0.599665 192.664 -0.599665 150.402 1.799C109.51 3.74077 73.1877 13.107 43.1474 43.0331C13.107 72.9593 3.85499 109.282 1.799 150.288C-0.599665 192.55 -0.599665 319.222 1.799 361.484C3.74077 402.49 13.107 438.812 43.1474 468.738C73.1877 498.665 109.396 508.031 150.402 510.087C192.664 512.485 319.336 512.485 361.598 510.087C402.604 508.145 438.927 498.779 468.853 468.738C498.779 438.812 508.145 402.49 510.201 361.484C512.6 319.222 512.6 192.664 510.201 150.402ZM455.603 406.83C446.694 429.218 429.446 446.465 406.944 455.489C373.249 468.853 293.293 465.769 256.057 465.769C218.821 465.769 138.751 468.738 105.17 455.489C82.7824 446.579 65.5349 429.332 56.5113 406.83C43.1474 373.135 46.2313 293.179 46.2313 255.943C46.2313 218.707 43.2616 138.637 56.5113 105.056C65.4206 82.6682 82.6682 65.4206 105.17 56.3971C138.865 43.0331 218.821 46.1171 256.057 46.1171C293.293 46.1171 373.363 43.1473 406.944 56.3971C429.332 65.3064 446.579 82.5539 455.603 105.056C468.967 138.751 465.883 218.707 465.883 255.943C465.883 293.179 468.967 373.249 455.603 406.83Z" fill="black"/>
</g>
<defs>
<clipPath id="clip0_1_12">
<rect width="512" height="512" fill="white"/>
</clipPath>
</defs>
</svg>
