<svg width="512" height="512" viewBox="0 0 512 512" fill="none" xmlns="http://www.w3.org/2000/svg">
<g clip-path="url(#clip0_1_13)">
<path d="M475.429 0H36.4571C16.3429 0 0 16.5714 0 36.9143V475.086C0 495.429 16.3429 512 36.4571 512H475.429C495.543 512 512 495.429 512 475.086V36.9143C512 16.5714 495.543 0 475.429 0ZM154.743 438.857H78.8571V194.514H154.857V438.857H154.743ZM116.8 161.143C92.4571 161.143 72.8 141.371 72.8 117.143C72.8 92.9143 92.4571 73.1429 116.8 73.1429C141.029 73.1429 160.8 92.9143 160.8 117.143C160.8 141.486 141.143 161.143 116.8 161.143ZM439.2 438.857H363.314V320C363.314 291.657 362.743 255.2 323.886 255.2C284.343 255.2 278.286 286.057 278.286 317.943V438.857H202.4V194.514H275.2V227.886H276.229C286.4 208.686 311.2 188.457 348.114 188.457C424.914 188.457 439.2 239.086 439.2 304.914V438.857Z" fill="black"/>
</g>
<defs>
<clipPath id="clip0_1_13">
<rect width="512" height="512" fill="white"/>
</clipPath>
</defs>
</svg>
